<svg xmlns="http://www.w3.org/2000/svg" viewBox="0 0 128 128" role="img" aria-label="VakeelLink">
  <defs>
    <linearGradient id="bg" x1="0%" y1="0%" x2="100%" y2="100%">
      <stop offset="0%" stop-color="#1d4ed8"/>
      <stop offset="100%" stop-color="#0f2d5e"/>
    </linearGradient>
  </defs>
  <rect width="128" height="128" rx="28" fill="url(#bg)"/>
  <!-- Scales of justice simplified -->
  <path d="M64 28v52" stroke="#93c5fd" stroke-width="5" stroke-linecap="round"/>
  <circle cx="64" cy="28" r="6" fill="#bfdbfe"/>
  <path d="M40 52h48" stroke="#93c5fd" stroke-width="4" stroke-linecap="round"/>
  <path d="M40 52c0 10-6 18-14 20 10 0 18-8 18-20z" fill="#dbeafe" opacity="0.95"/>
  <path d="M88 52c0 10 6 18 14 20-10 0-18-8-18-20z" fill="#dbeafe" opacity="0.95"/>
  <path d="M52 90h24c2 0 4 2 4 4v2H48v-2c0-2 2-4 4-4z" fill="#bfdbfe"/>
  <!-- V monogram -->
  <path d="M44 48 L64 88 L84 48" fill="none" stroke="#ffffff" stroke-width="10" stroke-linecap="round" stroke-linejoin="round" opacity="0.95"/>
</svg>
